<svg id="Layer_1" data-name="Layer 1" xmlns="http://www.w3.org/2000/svg" viewBox="0 0 50 50"><defs><style>.cls-1{fill:maroon;}</style></defs><path class="cls-1" d="M19.74,39.4A19.61,19.61,0,1,1,39.35,19.79,19.63,19.63,0,0,1,19.74,39.4Zm0-35.46A15.86,15.86,0,1,0,35.59,19.79,15.88,15.88,0,0,0,19.74,3.94Z"/><circle class="cls-1" cx="12.61" cy="17.44" r="2.35"/><circle class="cls-1" cx="27.48" cy="17.44" r="2.35"/><path class="cls-1" d="M26.26,28.46a10.4,10.4,0,0,0-12.49-.62L12,25.24A13.58,13.58,0,0,1,20.79,23a13.79,13.79,0,0,1,7.47,3.08Z"/><polygon class="cls-1" points="49.87 45.02 45.07 49.82 35.3 40.06 35.05 34.74 40.11 35.25 49.87 45.02"/><polygon class="cls-1" points="36.73 35.26 35.31 36.68 31.6 32.97 31.3 31.17 33.03 31.55 36.73 35.26"/></svg>