<svg id="Layer_1" data-name="Layer 1" xmlns="http://www.w3.org/2000/svg" viewBox="0 0 24 24"><defs><style>.cls-1{fill:#fff;}</style></defs><path class="cls-1" d="M4.24,16.66c2.29-.78,2.8,1.84,4.55,2l-.72-2c1-.25,1.75-.22,2,.94a.94.94,0,0,0,.12.22c.43.77.82,1.7,1.83,1.7s1.41-.92,1.83-1.69c.16-.29.28-.61.42-.91.32-.73,1-.39,1.42-.31s.08.54,0,.81c-.13.43-.32.83-.5,1.28,1.81-.14,2.3-2.81,4.41-2.08-.74,2.16-3.85,4.24-6.81,4.43A9,9,0,0,1,4.24,16.66Z"/><path class="cls-1" d="M15.13,5.16l.78,2.19c-1,.31-1.75.19-2-1a.6.6,0,0,0-.06-.11c-.45-.79-.83-1.8-1.91-1.78s-1.57,1-1.85,1.83A1.37,1.37,0,0,1,8.17,7.39a7.7,7.7,0,0,1,.67-2.14,3.81,3.81,0,0,0-2,1.34,2.26,2.26,0,0,1-2.54.81A8.62,8.62,0,0,1,11.15,3c3.66-.33,6.48,1.23,8.62,4.35-.93.18-1.68.34-2.34-.53A5.81,5.81,0,0,0,15.13,5.16Z"/><path class="cls-1" d="M17.41,12.7c.25-1,.45-1.69.61-2.42.07-.32.15-.53.54-.55s.59.19.68.55a7.44,7.44,0,0,0,.72,2c.13-.65.29-1.3.37-2s.5-.73,1-.62.21.54.15.8c-.26,1-.57,2.09-.83,3.15-.09.36-.18.59-.63.58s-.67-.13-.76-.61c-.12-.63-.35-1.24-.56-1.95a6.08,6.08,0,0,0-.66,2c-.1.36-.24.56-.67.58s-.66-.21-.76-.62c-.27-1.09-.57-2.18-.82-3.28,0-.19-.41-.6.17-.62.32,0,.78-.26.9.35C17,10.89,17.18,11.66,17.41,12.7Z"/><path class="cls-1" d="M4.26,12.3c.17-.67.33-1.35.5-2,.07-.29.15-.55.55-.55s.58.15.66.56c.15.72.37,1.43.63,2.43.22-1,.42-1.74.52-2.48s.54-.54.93-.48c.65.08.19.53.14.74-.22,1.06-.52,2.11-.79,3.16-.1.4-.26.65-.75.62A.64.64,0,0,1,6,13.7c-.17-.64-.36-1.27-.61-2.17-.26.86-.46,1.43-.59,2s-.19.75-.77.75-.58-.34-.68-.7c-.28-1.05-.57-2.09-.83-3.14-.06-.26-.35-.69.28-.71.38,0,.77-.06.86.47.12.7.26,1.4.39,2.1Z"/><path class="cls-1" d="M15,9.75c-.35,1.35-.7,2.55-1,3.77-.1.44-.18.75-.76.77s-.62-.45-.73-.81a5.79,5.79,0,0,0-.68-1.6c-.16.58-.31,1.16-.48,1.74-.1.37-.18.69-.72.67s-.62-.23-.72-.66c-.3-1.26-.65-2.51-1-3.86,2.19-.22.94,1.93,1.93,2.49.17-.62.36-1.29.51-2,.09-.38.21-.58.65-.57s.45.25.53.55c.16.68.35,1.37.54,2.05C14.09,11.75,12.85,9.61,15,9.75Z"/></svg>